<?xml version="1.0" standalone="no"?><!DOCTYPE svg PUBLIC "-//W3C//DTD SVG 1.1//EN" "http://www.w3.org/Graphics/SVG/1.1/DTD/svg11.dtd"><svg t="1723533119448" class="icon" viewBox="0 0 1024 1024" version="1.1" xmlns="http://www.w3.org/2000/svg" p-id="16656" xmlns:xlink="http://www.w3.org/1999/xlink" width="200" height="200"><path d="M512 512m-434.688 0a434.688 434.688 0 1 0 869.376 0 434.688 434.688 0 1 0-869.376 0Z" fill="#FADE32" p-id="16657"></path><path d="M680.448 459.264h-107.52v-107.52c0-30.208-24.576-55.296-55.296-55.296-30.208 0-55.296 24.576-55.296 55.296v107.52h-107.52c-30.208 0-55.296 24.576-55.296 55.296 0 30.208 24.576 55.296 55.296 55.296h107.52v107.52c0 30.208 24.576 55.296 55.296 55.296 30.208 0 55.296-24.576 55.296-55.296v-107.52h107.52c30.208 0 55.296-24.576 55.296-55.296 0-30.72-25.088-55.296-55.296-55.296z" fill="#57A728" p-id="16658"></path><path d="M512 76.8c-239.616 0-435.2 195.584-435.2 435.2 0 94.72 30.72 182.784 82.432 254.464 12.8 20.48 32.256 43.008 58.88 66.048C295.424 903.68 398.848 947.2 512 947.2c102.912 0 198.144-36.352 272.896-96.768 1.024-0.512 2.048-1.536 2.56-2.048 0.512-0.512 1.024-1.024 1.536-1.024 22.528-18.432 44.032-39.936 62.464-64 59.904-74.24 95.232-168.96 95.232-271.36 0-239.616-195.072-435.2-434.688-435.2z m316.928 686.592c-66.56 36.864-141.312 56.832-188.416 66.56-91.136 17.92-200.192-12.8-240.64-31.744-68.096-32.256-89.088-64.512-124.416-97.792l-19.968-18.944c-47.616-45.056-98.304-39.424-113.664-4.608-22.528-50.176-34.816-105.984-34.816-164.352C107.008 419.84 138.24 334.336 190.976 266.24c69.12-39.936 147.456-61.44 196.608-71.168 91.136-17.92 200.704 12.8 240.64 31.744 68.096 32.256 89.088 64.512 124.416 97.792l19.968 18.944c47.104 44.544 95.232 38.912 109.056 4.096a403.456 403.456 0 0 1 35.328 164.864c0 94.208-32.768 181.76-88.064 250.88z" fill="#51A629" p-id="16659"></path></svg>