<?xml version="1.0" standalone="no"?><!DOCTYPE svg PUBLIC "-//W3C//DTD SVG 1.1//EN" "http://www.w3.org/Graphics/SVG/1.1/DTD/svg11.dtd"><svg t="1723533187514" class="icon" viewBox="0 0 1024 1024" version="1.1" xmlns="http://www.w3.org/2000/svg" p-id="17936" xmlns:xlink="http://www.w3.org/1999/xlink" width="200" height="200"><path d="M500.224 806.4c-13.312-31.232-44.032-52.224-78.336-53.248-42.496-1.536-77.824 28.16-87.552 63.488-8.192 31.744 3.584 71.168 39.424 89.6 34.816 17.92 79.872 10.24 107.008-18.432 7.68 43.52 42.496 78.848 88.576 89.6 51.2 11.776 101.376-11.264 126.464-45.568 36.864-50.688 22.528-131.072-39.936-161.792-50.176-25.088-117.76-10.752-155.648 36.352zM219.648 123.904c2.56-0.512 52.224-11.776 87.04 26.624 29.184 32.256 25.6 73.728 25.088 79.36 36.352-28.16 86.528-20.48 112.128 13.312 22.016 29.184 22.528 73.216 0 105.984 55.808-24.064 114.176-3.584 136.704 39.936 20.992 40.448 2.56 86.528 0 92.672 39.424-13.312 82.944-3.584 112.128 26.624 32.768 33.28 43.008 86.016 25.088 132.096 7.68-0.512 58.88-3.584 99.328 39.936 40.448 43.52 37.888 97.792 37.376 105.984-211.968-221.696-423.424-441.856-634.88-662.528z" fill="#33CC33" p-id="17937"></path><path d="M403.968 734.72c-26.624-19.968-62.464-48.64-98.816-87.552-71.168-75.776-107.008-146.944-127.488-188.928C94.72 288.768 80.896 111.616 78.336 32.768 368.64 332.8 658.432 632.832 948.736 932.352c-33.792 5.12-81.408 8.192-137.216-1.536-29.184-5.12-54.272-12.8-75.264-20.48 3.072-8.704 24.064-71.68-14.336-128-5.632-8.704-27.648-39.424-70.656-53.76-44.032-14.848-81.408-3.584-92.16 0-28.672 9.216-47.104 24.576-56.832 33.792-3.072-4.096-22.016-29.696-56.832-33.792-18.944-2.56-34.304 3.072-41.472 6.144z" fill="#33CC33" p-id="17938"></path><path d="M374.784 855.04c4.608 21.504 22.016 37.376 41.984 38.4 20.48 1.024 38.912-12.8 46.08-33.792-29.184-1.536-58.368-3.072-88.064-4.608z m174.592 45.056c4.608 21.504 19.456 39.424 39.936 45.568 28.16 8.704 62.976-6.656 77.312-37.888-38.912-2.56-77.824-5.12-117.248-7.68zM547.84 839.68c0 10.752 9.216 19.456 20.48 19.456s20.48-8.704 20.48-19.456-9.216-19.456-20.48-19.456-20.48 8.704-20.48 19.456zM635.904 853.504c0 10.752 9.216 19.456 20.48 19.456s20.48-8.704 20.48-19.456c0-10.752-9.216-19.456-20.48-19.456s-20.48 8.704-20.48 19.456zM436.736 821.76c0 9.728 7.168 17.92 15.872 17.92 8.704 0 15.872-8.192 15.872-17.92s-7.168-17.92-15.872-17.92c-8.704 0.512-15.872 8.192-15.872 17.92zM367.616 817.152c0 9.216 7.68 16.896 16.896 16.896 9.216 0 16.896-7.68 16.896-16.896s-7.68-16.896-16.896-16.896c-9.216 0-16.896 7.68-16.896 16.896z" fill="#FFFFFF" p-id="17939"></path></svg>