<?xml version="1.0" standalone="no"?><!DOCTYPE svg PUBLIC "-//W3C//DTD SVG 1.1//EN" "http://www.w3.org/Graphics/SVG/1.1/DTD/svg11.dtd"><svg t="1723533244383" class="icon" viewBox="0 0 1024 1024" version="1.1" xmlns="http://www.w3.org/2000/svg" p-id="21642" xmlns:xlink="http://www.w3.org/1999/xlink" width="200" height="200"><path d="M512 512m-512 0a512 512 0 1 0 1024 0 512 512 0 1 0-1024 0Z" fill="#306CFF" opacity=".1" p-id="21643"></path><path d="M429.511111 401.408c-33.564444 0-60.984889-38.798222-60.984889-86.869333 0-47.900444 27.363556-86.698667 61.041778-86.698667s60.871111 38.798222 60.871111 86.698667c0 48.071111-27.192889 86.869333-60.871111 86.869333z m145.237333 5.688889c-44.942222-5.802667-55.182222-46.535111-50.688-87.381333 3.640889-33.393778 43.52-84.593778 75.434667-77.255112 31.971556 7.281778 60.984889 49.493333 55.125333 85.902223-5.859556 36.465778-34.759111 84.593778-79.872 78.677333zM316.302222 523.605333c-60.871111 13.084444-83.512889-57.400889-76.8-90.453333 0 0 7.168-71.281778 56.604445-75.662222 39.196444-3.413333 68.096 39.537778 71.111111 64.056889 1.820444 15.928889 10.183111 88.974222-50.915556 102.058666z m368.924445-125.269333c53.703111 0 68.209778 52.451556 68.209777 69.802667 0 17.521778 7.224889 91.818667-59.562666 93.297777-66.844444 1.479111-69.688889-45.169778-69.688889-78.620444 0-35.043556 7.224889-84.48 61.041778-84.48z m-304.071111 252.188444a37.546667 37.546667 0 0 1 24.519111-21.731555h34.190222v78.108444H407.893333s-22.186667-1.137778-29.070222-26.737777c-3.413333-11.377778 0.568889-24.519111 2.275556-29.639112z" fill="#306CFF" p-id="21644"></path><path d="M685.169778 621.340444s-69.688889-53.930667-110.364445-112.241777c-55.182222-85.902222-133.632-50.972444-159.800889-7.338667-26.112 43.747556-66.730667 71.452444-72.590222 78.734222-5.802667 7.168-84.195556 49.493333-66.787555 126.862222 17.408 77.198222 78.506667 75.662222 78.506666 75.662223s44.942222 4.380444 97.28-7.338667a204.515556 204.515556 0 0 1 97.166223 2.958222s122.083556 40.846222 155.420444-37.888c33.393778-78.677333-18.830222-119.409778-18.830222-119.409778z m-208.782222 117.077334H397.084444c-34.360889-6.826667-48.014222-30.208-49.664-34.247111-1.706667-3.982222-11.377778-22.812444-6.257777-54.784 14.791111-47.900444 57.059556-51.370667 57.059555-51.370667h42.268445V546.133333l35.953777 0.568889v191.715556h-0.113777z m147.797333-0.568889H532.821333c-35.384889-9.102222-36.977778-34.133333-36.977777-34.133333v-101.034667l36.977777-0.625778v90.794667c2.275556 9.671111 14.222222 11.377778 14.222223 11.377778h37.717333v-101.546667h39.424v135.168z" fill="#306CFF" p-id="21645"></path></svg>