<?xml version="1.0" standalone="no"?><!DOCTYPE svg PUBLIC "-//W3C//DTD SVG 1.1//EN" "http://www.w3.org/Graphics/SVG/1.1/DTD/svg11.dtd"><svg t="1723532898702" class="icon" viewBox="0 0 1024 1024" version="1.1" xmlns="http://www.w3.org/2000/svg" p-id="11602" xmlns:xlink="http://www.w3.org/1999/xlink" width="200" height="200"><path d="M512 512m-448 0a448 448 0 1 0 896 0 448 448 0 1 0-896 0Z" fill="#04A666" p-id="11603"></path><path d="M859.4 519.5c25.8-16.4 26-43.3-0.4-58.1-32.7-18.4-66.6-18.3-99.2 0.2-25.9 14.6-25.7 41.1-0.7 57.5 15.4 10.1 32.6 12.4 49.9 13.7 17.7-1.3 35-3.5 50.4-13.3z m31.3-64.5c13.6 7.4 26.9 16.7 26.8 35.5-0.2 18.7-13 28.6-27 35.3-44.5 21.3-89.5 21.3-134 0.2-13.8-6.5-27-15.9-27.1-35.1-0.1-19.7 13.4-28.6 27.2-36.5 17.8-10.1 39.6-14.5 69.9-14.4 20.6-0.7 43.2 3.6 64.2 15z m-650.8 62.6c21.9-15.9 21.8-39.6-0.5-54.7-15.8-10.7-33.4-14.6-51.9-14.1-18.1-0.4-35.4 3.1-51.1 13.3-23.8 15.4-24.3 39.4-1.3 55.9 26.7 19.1 78.2 19 104.8-0.4z m30.7-61.3c12.6 7.2 24.3 16.3 24.7 33.5 0.3 17.8-11.8 27.2-24.6 34.8-21.8 12.9-45.6 16-71.1 17.2-24.8-1.7-50.5-4.6-73.2-20.2-26.5-18.2-26.5-43.6-0.2-62.1 14.3-10 30.2-15.4 46.9-17.5 33.6-4.3 66.6-3.4 97.5 14.3z m198.6-6.8c10.1 3.9 19.5 9.2 27.4 17.3 14.6 14.9 14.3 33.9-0.8 48.2-9.8 9.3-21.5 15.1-33.9 18.8-39.2 11.6-77.9 10.9-115.5-7.6-7.9-3.9-10.1-1.6-10 7 0.2 13.1-0.3 26.3 0.1 39.4 0.3 9.4-3 13.8-11.8 13-2.8-0.3-5.7-0.2-8.5 0-8.2 0.6-11.5-3.6-11.4-12.4 0.2-20.5 0.1-41 0.1-61.4 0-19.7 0.3-39.4-0.1-59.1-0.2-10.4 3.2-14.5 13-14.4 18.7 0.2 18.7-0.2 18.7 20.6 0 13.1 0.3 26.3-0.1 39.4-0.2 8.8 3 14.9 9.9 19 35.1 20.7 70.8 21.6 105.6 0.1 22.8-14.1 22.2-39-0.2-54.3-21.9-15-46.1-16.1-71-13.2-4.1 0.5-10.9 4.9-11.9-1.1-0.9-5.1 6.8-5.2 11.1-5.9 30.2-5.1 60.1-4.7 89.3 6.6z m223.6 5.7c13.4 7.2 26.3 16.3 26.5 34.6 0.3 18.8-12.7 28.9-26.5 35.7-43.7 21.5-88 21-132.3 2-10.8-4.6-11.1-4.8-11.2 7.7-0.1 12.4-0.4 24.7 0.1 37.1 0.4 10.2-3.7 13.5-12.7 13.5-20.2 0-20.2 0.4-20.2-21.2v-53.3c0-19.7 0.3-39.4-0.1-59.1-0.2-9.8 2.7-14.7 12.2-13.7 2.8 0.3 5.7 0.3 8.5 0 9.4-0.9 12.5 4.1 12.3 13.8-0.4 15.4 0.2 30.9-0.2 46.4-0.2 8.8 3.3 14.5 9.7 19.1 26.7 19.7 80.4 19.2 106.6-1.1 20.1-15.6 20.1-38.1-0.6-52.7-22.7-16-48-17.2-73.9-13.6-3.8 0.5-10 4.6-11-1-1-5.2 6-5.3 9.9-5.9 35.2-6.2 69.9-6 102.9 11.7z" fill="#FFFFFF" p-id="11604"></path></svg>