<?xml version="1.0" standalone="no"?><!DOCTYPE svg PUBLIC "-//W3C//DTD SVG 1.1//EN" "http://www.w3.org/Graphics/SVG/1.1/DTD/svg11.dtd"><svg t="1723532961058" class="icon" viewBox="0 0 1770 1024" version="1.1" xmlns="http://www.w3.org/2000/svg" p-id="13590" xmlns:xlink="http://www.w3.org/1999/xlink" width="345.703125" height="200"><path d="M112.34176147 464.75281347c-1.173675-4.81206672-0.88025625-9.85886948-0.23473474-12.49963824 1.64314448-7.5702035 6.80731526-16.07934724 21.83035423-16.07934595 13.96673198 0 22.18245699 8.62651047 22.182457 21.6543022v14.78830423h59.50532096v-16.78355146c0-51.93511747-46.8296307-60.20952519-80.57278697-60.20952519-42.42834945 0-77.05176197 14.025416-83.38960644 53.05010846-1.7605125 10.73912574-2.05393124 20.12852573 0.46947077 32.15869319 10.38702298 48.82487794 95.18503917 62.96766196 107.50862668 93.83531344 2.34735001 5.75100699 1.64314448 13.14515974 0.46946947 17.60512501-1.93656323 7.98099026-7.33546875 16.13803125-23.29744798 16.13803126-14.96435626 0-23.88428548-8.68519447-23.88428546-21.77167153v-22.94534522H48.78726202v18.25064522c0 53.40221122 41.95887997 69.42287446 86.79326471 69.42287446s78.57753842-14.72962021 84.32854542-54.69325294c2.87550349-20.59799522 0.64552151-33.97788972-0.29341875-39.08337648-10.0349215-50.11592096-100.58394468-64.96290919-107.39125865-92.95505718z m1521.96301278 43.19123897v34.85814726h24.47112299v34.56472721c0.05868401 3.11023823-0.11736802 6.39652849-0.64552152 9.09598126-0.99762428 6.4552125-7.10073401 17.42907297-24.41243896 17.42907297s-23.29744798-10.97386048-24.35375627-17.42907297c-0.46946948-2.69945276-0.64552151-5.98574172-0.64552151-9.09598126v-109.09308845c0-3.87312775 0.23473474-8.09835698 1.05630827-11.26727922 1.173675-5.809691 6.27916048-17.31170626 23.76691746-17.31170626s22.76929449 12.08885277 23.76691878 17.31170626c0.76288822 3.40365698 0.76288822 9.21334798 0.76288822 9.21334798v13.26252777h60.09215847v-7.86362225s0.29341874-8.15704099-0.41078678-15.78592849c-4.51864798-44.77569946-41.43072649-58.97716748-83.7417079-58.97716748s-78.57753842 14.31883474-83.80039323 58.97716748c-0.46946948 4.10786251-1.173675 11.44333125-1.173675 15.78592849v100.34920995c0 4.34259725 0.17605073 7.74625422 0.99762427 15.72724448 3.87312775 43.54334174 41.66546122 58.97716748 83.85907594 58.97716618s79.92726545-15.43382574 83.91775993-58.97716618c0.64552151-8.03967298 0.70420551-11.38464724 0.88025625-15.72724448v-63.96528623H1634.24609023z m-414.48331423-104.69180718h-60.44426124v176.63808239c0.11736802 3.05155552 0 6.5138965-0.52815348 9.03729724-1.29104302 5.92705901-6.27916048 17.37038897-22.94534522 17.37039027s-21.59561949-11.38464724-22.71061178-17.37039027c-0.64552151-2.52340073-0.70420551-5.98574172-0.64552021-9.03729724v-176.63808239h-60.32689322v171.12181014c-0.05868401 4.45996526 0.29341874 13.4385785 0.52815349 15.78592849 4.16654651 44.54096471 39.31811122 59.0945342 83.21355443 59.09453421s79.04700921-14.49488548 83.33092245-59.09453421c0.29341874-2.34735001 0.76288822-11.38464724 0.52815479-15.78592849V403.25224526z m-554.73747288 0l-30.10476326 186.55563588-30.10476324-186.55563588h-97.41502116l-5.10548677 238.72548809h59.68137172l1.58446176-221.06167908 41.0199397 221.06167908h60.50294525l41.13730772-221.06167908 1.64314448 221.06167908h59.79873973l-5.34022152-238.72548809h-97.23897041z m-360.61163353 0l-44.24754596 238.72548809h64.49343972l33.3323682-221.06167908 32.51079723 221.06167908h64.02396896l-44.01281122-238.72548809H304.47235361z m1126.31718126 192.18927614l-56.16034669-192.18927614h-88.61245995v236.20208736h58.5663807l-3.40365826-198.3510686 60.3855772 198.3510686h84.97406823V403.25224526h-58.97716748l3.28629026 192.18927614z m-542.06178261-130.04318642c-1.11499099-4.753384-0.76288822-9.74150276-0.23473605-12.32358621 1.70182849-7.62888751 6.86599797-15.96197923 21.65430349-15.96198052 13.79068126 0 21.83035423 8.56782777 21.83035423 21.47825276v14.55356949h58.91848349v-16.60750075c0-51.4656467-46.12542649-59.50532097-79.5164787-59.50532096-42.01756398 0-76.40624045 13.90804798-82.62671822 52.58063768-1.70182849 10.504391-2.05393124 19.89379101 0.5868375 31.80659175 10.21097226 48.29672446 94.2461002 62.32214045 106.39363567 92.77900645 2.17129927 5.75100699 1.52577776 13.14515974 0.41078678 17.48775699-1.81919651 7.92230625-7.21810074 15.96197923-23.00402923 15.96197923-14.84698823 0-23.76691746-8.56782777-23.76691875-21.41956747v-22.88666251h-63.37844744v18.25064653c0 52.75668972 41.37204246 68.71866895 85.85432316 68.71866893s77.87333421-14.55356948 83.50697447-54.04773274c2.69945276-20.42194449 0.64552151-33.68447095-0.41078677-38.6725897-9.91755349-49.52908346-99.46895371-64.43475571-106.21758363-92.01611692z" fill="#0F218C" p-id="13591"></path></svg>