<?xml version="1.0" standalone="no"?><!DOCTYPE svg PUBLIC "-//W3C//DTD SVG 1.1//EN" "http://www.w3.org/Graphics/SVG/1.1/DTD/svg11.dtd"><svg t="1723616237232" class="icon" viewBox="0 0 1024 1024" version="1.1" xmlns="http://www.w3.org/2000/svg" p-id="5511" xmlns:xlink="http://www.w3.org/1999/xlink" width="200" height="200"><path d="M0 512C0 270.677333 0 150.016 74.922667 74.922667S270.677333 0 512 0c241.322667 0 361.984 0 437.077333 74.922667S1024 270.677333 1024 512c0 241.322667 0 361.984-74.922667 437.077333S753.322667 1024 512 1024c-241.322667 0-361.984 0-437.077333-74.922667S0 753.322667 0 512z" fill="#10289C" p-id="5512"></path><path d="M86.698667 550.570667H51.2c-3.072 23.552 4.949333 38.058667 24.917333 43.52a81.92 81.92 0 0 0 47.104 0 38.229333 38.229333 0 0 0 10.410667-63.658667q-8.533333-5.461333-17.066667-10.24L104.106667 512l-1.706667-1.365333a78.336 78.336 0 0 1-12.117333-8.021334 10.24 10.24 0 0 1-2.218667-15.36 19.968 19.968 0 0 1 13.312-4.949333c6.144 0 8.874667 4.949333 9.216 10.922667v4.096a36.181333 36.181333 0 0 0 0 4.096h32.597333C145.066667 476.501333 136.533333 464.213333 112.128 460.8a111.274667 111.274667 0 0 0-31.914667 1.194667 30.72 30.72 0 0 0-26.794666 23.893333 35.157333 35.157333 0 0 0 17.066666 40.618667c4.437333 2.56 8.874667 5.12 13.482667 7.509333s10.24 5.802667 15.189333 8.874667a43.861333 43.861333 0 0 1 11.605334 9.386666 13.312 13.312 0 0 1 0 17.066667c-3.754667 5.973333-10.410667 5.12-16.042667 3.925333a10.581333 10.581333 0 0 1-8.192-12.117333z m887.466666-45.568h-33.621333v-7.850667a12.117333 12.117333 0 0 0-13.141333-13.312 11.946667 11.946667 0 0 0-13.312 12.458667v63.488a11.776 11.776 0 0 0 13.824 11.946666c8.021333 0 12.970667-4.266667 13.312-11.946666v-20.138667h-12.629334v-17.066667H972.8v47.786667a25.6 25.6 0 0 1-17.066667 20.650667 71.338667 71.338667 0 0 1-51.2 3.072A31.061333 31.061333 0 0 1 881.493333 563.2v-68.266667a30.72 30.72 0 0 1 28.672-31.402666 96.426667 96.426667 0 0 1 35.669334 0A34.133333 34.133333 0 0 1 972.8 505.002667z m-238.250666-40.618667h45.397333c1.877333 0 4.096 3.925333 4.949333 6.485333 5.12 16.213333 10.069333 32.426667 15.018667 48.981334 3.754667 12.458667 7.509333 25.258667 11.434667 37.888a5.290667 5.290667 0 0 0 1.877333 3.242666v-95.914666h31.402667v125.610666h-46.933334c-10.581333-34.133333-20.992-66.56-31.402666-99.498666h-1.024v99.669333h-30.72z m-431.104 0H358.4c2.56 15.872 5.290667 31.744 7.850667 47.786667 2.730667 15.872 5.461333 31.744 8.021333 47.616H375.466667c2.56-15.872 5.290667-31.744 7.850666-47.616 2.730667-16.042667 5.461333-31.914667 8.021334-47.786667h53.930666c0.853333 42.325333 1.877333 85.333333 3.072 127.146667h-32.768v-109.568h-2.218666L409.6 506.538667c-1.706667 8.362667-3.242667 17.066667-4.778667 24.917333s-3.754667 18.432-5.461333 27.818667-3.584 18.602667-5.461333 27.818666a7.850667 7.850667 0 0 1-5.12 5.461334H358.4c-3.754667-20.309333-7.68-40.448-11.605333-60.586667-3.413333-17.066667-6.656-34.133333-9.898667-51.2h-1.877333v111.445333h-34.133334c0-27.818667 1.024-55.637333 1.706667-83.626666z m393.557333 0H665.6v93.696c0 9.045333-3.925333 13.653333-12.288 13.824s-13.482667-4.266667-13.482667-14.165333v-93.354667h-34.133333v99.669333a27.648 27.648 0 0 0 17.066667 26.112 69.290667 69.290667 0 0 0 58.197333 0 32.597333 32.597333 0 0 0 17.066667-34.133333V469.333333a15.018667 15.018667 0 0 0 0-3.584z m-422.741333 127.658667h-35.498667c-2.901333-20.138667-5.973333-40.106667-9.045333-60.074667-2.56-17.066667-5.290667-34.133333-7.850667-52.053333a3.754667 3.754667 0 0 1-1.877333 0c-5.802667 37.376-11.605333 74.581333-17.066667 112.469333h-35.84c2.730667-17.066667 5.802667-34.133333 9.216-51.2 1.706667-9.386667 3.584-18.773333 5.461333-27.989333 2.730667-13.994667 5.461333-27.989333 7.850667-41.984 0.853333-5.12 2.730667-6.656 8.021333-6.656h51.2c9.045333 42.666667 17.066667 84.650667 25.429334 127.488z m239.957333-41.813334h-34.133333c-2.389333 23.04 4.608 36.693333 23.722666 42.666667a72.874667 72.874667 0 0 0 47.445334 0 28.501333 28.501333 0 0 0 20.821333-18.602667c6.826667-23.893333 2.218667-38.4-16.213333-49.834666l-11.776-6.656c-3.925333-2.048-7.850667-4.096-11.605334-6.485334a125.952 125.952 0 0 1-12.288-7.850666 11.605333 11.605333 0 0 1-4.437333-15.36c2.901333-6.144 8.704-6.144 14.506667-5.290667s8.021333 6.144 8.362666 11.776v6.144h31.402667c2.218667-19.968-4.949333-32.768-21.504-37.205333a75.093333 75.093333 0 0 0-43.349333 0 31.232 31.232 0 0 0-24.917334 32.085333 32.426667 32.426667 0 0 0 17.066667 30.378667l16.042667 9.386666 16.042666 9.557334a26.624 26.624 0 0 1 9.557334 9.386666 22.016 22.016 0 0 1-1.024 14.848c-2.730667 5.12-9.216 5.12-15.018667 3.754667a10.24 10.24 0 0 1-8.362667-11.264z" fill="#FFFFFF" p-id="5513"></path></svg>