<?xml version="1.0" standalone="no"?><!DOCTYPE svg PUBLIC "-//W3C//DTD SVG 1.1//EN" "http://www.w3.org/Graphics/SVG/1.1/DTD/svg11.dtd"><svg t="1723532791687" class="icon" viewBox="0 0 1024 1024" version="1.1" xmlns="http://www.w3.org/2000/svg" p-id="4777" xmlns:xlink="http://www.w3.org/1999/xlink" width="200" height="200"><path d="M512 512m-512 0a512 512 0 1 0 1024 0 512 512 0 1 0-1024 0Z" fill="#EBEFF6" p-id="4778"></path><path d="M400.853333 456.533333a15.232 15.232 0 0 0-15.36 15.232v118.485334c0 8.405333 6.912 15.189333 15.36 15.189333a15.232 15.232 0 0 0 15.36-15.189333v-118.485334a15.274667 15.274667 0 0 0-15.36-15.189333z m20.48-36.352l-16.085333-16.085333a6.101333 6.101333 0 0 0-4.266667-1.792h-0.213333a6.186667 6.186667 0 0 0-4.266667 1.792l-16.085333 16.085333a6.186667 6.186667 0 0 0 0 8.746667l16.042667 16.085333a6.229333 6.229333 0 0 0 8.746666 0l16.085334-16.085333a6.186667 6.186667 0 0 0 0-8.746667z m123.434667 185.258667h0.341333c15.061333 0.042667 27.093333-6.784 38.101334-22.528l69.546666-102.272a15.530667 15.530667 0 0 0-3.925333-21.333333 15.146667 15.146667 0 0 0-21.205333 3.925333l-69.504 102.272c-4.266667 6.485333-8.874667 9.173333-13.312 9.173333h-0.128c-5.290667-0.085333-9.130667-2.986667-13.44-9.173333l-69.461334-102.272a15.189333 15.189333 0 0 0-27.818666 8.704c0 2.986667 0.853333 6.058667 2.645333 8.704l69.546667 102.272c9.642667 14.208 23.68 22.528 38.528 22.528h0.085333z m-287.658667 0h0.298667c15.104 0.042667 27.136-6.784 38.144-22.528l69.546667-102.272a15.445333 15.445333 0 0 0-12.544-24.064 15.232 15.232 0 0 0-12.586667 6.656l-69.546667 102.272c-4.181333 6.485333-8.832 9.173333-13.312 9.173333h-0.085333c-5.290667-0.085333-9.173333-2.944-13.44-9.173333L174.08 463.232a15.146667 15.146667 0 0 0-21.205333-3.968 15.445333 15.445333 0 0 0-3.925334 21.376l69.546667 102.272c9.6 14.208 23.68 22.528 38.528 22.528h0.085333z m547.541334-151.338667h-77.098667c-40.277333 0-73.045333 32.938667-73.045333 73.386667v3.84c0 40.448 32.768 73.386667 73.045333 73.386667h77.098667c40.277333 0 73.045333-32.938667 73.045333-73.386667v-3.84c0-40.448-32.768-73.386667-73.045333-73.386667z m0 121.984h-77.098667a44.629333 44.629333 0 0 1-44.245333-44.8v-3.754666a44.629333 44.629333 0 0 1 44.245333-44.8h77.098667c24.405333 0.085333 44.202667 20.096 44.288 44.8v3.797333a44.672 44.672 0 0 1-44.288 44.757333z" fill="#4260FF" p-id="4779"></path></svg>